<?xml version="1.0" encoding="UTF-8" standalone="no"?>
<!DOCTYPE svg PUBLIC "-//W3C//DTD SVG 1.0//EN" "http://www.w3.org/TR/2001/PR-SVG-20010719/DTD/svg10.dtd">
<svg width="34cm" height="21cm" viewBox="28 -33 674 405" xmlns="http://www.w3.org/2000/svg" xmlns:xlink="http://www.w3.org/1999/xlink">
  <g>
    <ellipse style="fill: #ffffff" cx="427.435" cy="241.967" rx="58.2268" ry="29.4071"/>
    <ellipse style="fill: none; fill-opacity:0; stroke-width: 2; stroke: #000000" cx="427.435" cy="241.967" rx="58.2268" ry="29.4071"/>
    <text font-size="12.8" style="fill: #000000;text-anchor:middle;font-family:sans-serif;font-style:normal;font-weight:normal" x="427.435" y="237.867">
      <tspan x="427.435" y="237.867">tmf.core</tspan>
      <tspan x="427.435" y="253.867">tmf.ui</tspan>
    </text>
  </g>
  <g>
    <ellipse style="fill: #ffffff" cx="145.435" cy="168.966" rx="49.5673" ry="28.0336"/>
    <ellipse style="fill: none; fill-opacity:0; stroke-width: 2; stroke: #000000" cx="145.435" cy="168.966" rx="49.5673" ry="28.0336"/>
    <text font-size="12.8" style="fill: #000000;text-anchor:middle;font-family:sans-serif;font-style:normal;font-weight:normal" x="145.435" y="172.866">
      <tspan x="145.435" y="172.866">tmf.ctf.*</tspan>
    </text>
  </g>
  <g>
    <ellipse style="fill: #ffffff" cx="318.435" cy="103.466" rx="73.7699" ry="26.9998"/>
    <ellipse style="fill: none; fill-opacity:0; stroke-width: 2; stroke: #000000" cx="318.435" cy="103.466" rx="73.7699" ry="26.9998"/>
    <text font-size="12.8" style="fill: #000000;text-anchor:middle;font-family:sans-serif;font-style:normal;font-weight:normal" x="318.435" y="107.366">
      <tspan x="318.435" y="107.366">analysis.os.linux</tspan>
    </text>
  </g>
  <g>
    <ellipse style="fill: #ffffff" cx="212.298" cy="3.26173" rx="66.4994" ry="34.5779"/>
    <ellipse style="fill: none; fill-opacity:0; stroke-width: 2; stroke: #000000" cx="212.298" cy="3.26173" rx="66.4994" ry="34.5779"/>
    <text font-size="12.8" style="fill: #000000;text-anchor:middle;font-family:sans-serif;font-style:normal;font-weight:normal" x="212.298" y="-0.83827">
      <tspan x="212.298" y="-0.83827">lttng2.kernel</tspan>
      <tspan x="212.298" y="15.1617">lttng2.ust</tspan>
    </text>
  </g>
  <g>
    <ellipse style="fill: #ffffff" cx="331.658" cy="344.164" rx="59.2592" ry="25.7459"/>
    <ellipse style="fill: none; fill-opacity:0; stroke-width: 2; stroke: #000000" cx="331.658" cy="344.164" rx="59.2592" ry="25.7459"/>
    <text font-size="12.8" style="fill: #000000;text-anchor:middle;font-family:sans-serif;font-style:normal;font-weight:normal" x="331.658" y="348.064">
      <tspan x="331.658" y="348.064">statesystem</tspan>
    </text>
  </g>
  <g>
    <ellipse style="fill: #ffffff" cx="67.1908" cy="249.148" rx="37.8112" ry="22.4596"/>
    <ellipse style="fill: none; fill-opacity:0; stroke-width: 2; stroke: #000000" cx="67.1908" cy="249.148" rx="37.8112" ry="22.4596"/>
    <text font-size="12.8" style="fill: #000000;text-anchor:middle;font-family:sans-serif;font-style:normal;font-weight:normal" x="67.1908" y="253.048">
      <tspan x="67.1908" y="253.048">ctf.*</tspan>
    </text>
  </g>
  <g>
    <line style="fill: none; fill-opacity:0; stroke-width: 2; stroke: #000000" x1="120.783" y1="194.229" x2="93.652" y2="222.031"/>
    <polygon style="fill: #000000" points="88.4139,227.399 91.8195,216.75 93.652,222.031 98.9765,223.734 "/>
    <polygon style="fill: none; fill-opacity:0; stroke-width: 2; stroke: #000000" points="88.4139,227.399 91.8195,216.75 93.652,222.031 98.9765,223.734 "/>
  </g>
  <g>
    <line style="fill: none; fill-opacity:0; stroke-width: 2; stroke: #000000" x1="191.468" y1="180.883" x2="365.229" y2="225.864"/>
    <polygon style="fill: #000000" points="372.49,227.744 361.556,230.078 365.229,225.864 364.062,220.397 "/>
    <polygon style="fill: none; fill-opacity:0; stroke-width: 2; stroke: #000000" points="372.49,227.744 361.556,230.078 365.229,225.864 364.062,220.397 "/>
  </g>
  <g>
    <line style="fill: none; fill-opacity:0; stroke-width: 2; stroke: #000000" x1="401.842" y1="269.275" x2="361.336" y2="312.496"/>
    <polygon style="fill: #000000" points="356.208,317.968 359.398,307.253 361.336,312.496 366.694,314.091 "/>
    <polygon style="fill: none; fill-opacity:0; stroke-width: 2; stroke: #000000" points="356.208,317.968 359.398,307.253 361.336,312.496 366.694,314.091 "/>
  </g>
  <g>
    <line style="fill: none; fill-opacity:0; stroke-width: 2; stroke: #000000" x1="339.475" y1="130.2" x2="399.293" y2="206.209"/>
    <polygon style="fill: #000000" points="403.931,212.102 393.818,207.336 399.293,206.209 401.676,201.152 "/>
    <polygon style="fill: none; fill-opacity:0; stroke-width: 2; stroke: #000000" points="403.931,212.102 393.818,207.336 399.293,206.209 401.676,201.152 "/>
  </g>
  <g>
    <line style="fill: none; fill-opacity:0; stroke-width: 2; stroke: #000000" x1="198.272" y1="38.0229" x2="160.483" y2="131.675"/>
    <polygon style="fill: #000000" points="157.676,138.63 156.781,127.485 160.483,131.675 166.055,131.227 "/>
    <polygon style="fill: none; fill-opacity:0; stroke-width: 2; stroke: #000000" points="157.676,138.63 156.781,127.485 160.483,131.675 166.055,131.227 "/>
  </g>
  <g>
    <g>
      <rect style="fill: #ffffff" x="491.246" y="327.278" width="189.754" height="44.1558"/>
      <rect style="fill: none; fill-opacity:0; stroke-width: 2; stroke: #000000" x="491.246" y="327.278" width="189.754" height="44.1558"/>
    </g>
    <g>
      <line style="fill: none; fill-opacity:0; stroke-width: 2; stroke: #000000" x1="560.844" y1="349.032" x2="521.578" y2="348.231"/>
      <polygon style="fill: #000000" points="514.08,348.078 524.18,343.283 521.578,348.231 523.976,353.281 "/>
      <polygon style="fill: none; fill-opacity:0; stroke-width: 2; stroke: #000000" points="514.08,348.078 524.18,343.283 521.578,348.231 523.976,353.281 "/>
    </g>
    <text font-size="12.8" style="fill: #000000;text-anchor:start;font-family:sans-serif;font-style:normal;font-weight:normal" x="575.336" y="352.52">
      <tspan x="575.336" y="352.52">Dependency</tspan>
    </text>
  </g>
  <g>
    <line style="fill: none; fill-opacity:0; stroke-width: 2; stroke: #000000" x1="237.746" y1="35.2076" x2="282.697" y2="72.3228"/>
    <polygon style="fill: #000000" points="288.481,77.098 277.586,74.5866 282.697,72.3228 283.953,66.8755 "/>
    <polygon style="fill: none; fill-opacity:0; stroke-width: 2; stroke: #000000" points="288.481,77.098 277.586,74.5866 282.697,72.3228 283.953,66.8755 "/>
  </g>
  <g>
    <ellipse style="fill: #ffffff" cx="660.613" cy="217.001" rx="40.7112" ry="22.2668"/>
    <ellipse style="fill: none; fill-opacity:0; stroke-width: 2; stroke: #000000" cx="660.613" cy="217.001" rx="40.7112" ry="22.2668"/>
    <text font-size="12.8" style="fill: #000000;text-anchor:middle;font-family:sans-serif;font-style:normal;font-weight:normal" x="660.613" y="220.901">
      <tspan x="660.613" y="220.901">pcap.*</tspan>
    </text>
  </g>
  <g>
    <ellipse style="fill: #ffffff" cx="608.613" cy="146.001" rx="45.952" ry="25.1332"/>
    <ellipse style="fill: none; fill-opacity:0; stroke-width: 2; stroke: #000000" cx="608.613" cy="146.001" rx="45.952" ry="25.1332"/>
    <text font-size="12.8" style="fill: #000000;text-anchor:middle;font-family:sans-serif;font-style:normal;font-weight:normal" x="608.613" y="149.901">
      <tspan x="608.613" y="149.901">tmf.pcap</tspan>
    </text>
  </g>
  <g>
    <line style="fill: none; fill-opacity:0; stroke-width: 2; stroke: #000000" x1="626.198" y1="169.221" x2="639.421" y2="187.579"/>
    <polygon style="fill: #000000" points="643.804,193.664 633.903,188.472 639.421,187.579 642.017,182.628 "/>
    <polygon style="fill: none; fill-opacity:0; stroke-width: 2; stroke: #000000" points="643.804,193.664 633.903,188.472 639.421,187.579 642.017,182.628 "/>
  </g>
  <g>
    <line style="fill: none; fill-opacity:0; stroke-width: 2; stroke: #000000" x1="576.12" y1="163.772" x2="489.185" y2="225.101"/>
    <polygon style="fill: #000000" points="483.057,229.425 488.346,219.574 489.185,225.101 494.11,227.746 "/>
    <polygon style="fill: none; fill-opacity:0; stroke-width: 2; stroke: #000000" points="483.057,229.425 488.346,219.574 489.185,225.101 494.11,227.746 "/>
  </g>
  <g>
    <ellipse style="fill: #ffffff" cx="427.952" cy="29.0838" rx="35.05" ry="20.35"/>
    <ellipse style="fill: none; fill-opacity:0; stroke-width: 2; stroke: #000000" cx="427.952" cy="29.0838" rx="35.05" ry="20.35"/>
    <text font-size="12.8" style="fill: #000000;text-anchor:middle;font-family:sans-serif;font-style:normal;font-weight:normal" x="427.952" y="32.9838">
      <tspan x="427.952" y="32.9838">btf.*</tspan>
    </text>
  </g>
  <g>
    <ellipse style="fill: #ffffff" cx="551.265" cy="60.8867" rx="51.1407" ry="27.4114"/>
    <ellipse style="fill: none; fill-opacity:0; stroke-width: 2; stroke: #000000" cx="551.265" cy="60.8867" rx="51.1407" ry="27.4114"/>
    <text font-size="12.8" style="fill: #000000;text-anchor:middle;font-family:sans-serif;font-style:normal;font-weight:normal" x="551.265" y="64.7867">
      <tspan x="551.265" y="64.7867">gdbtrace.*</tspan>
    </text>
  </g>
  <g>
    <line style="fill: none; fill-opacity:0; stroke-width: 2; stroke: #000000" x1="531.694" y1="86.2116" x2="454.951" y2="206.589"/>
    <polygon style="fill: #000000" points="450.919,212.913 452.079,201.793 454.951,206.589 460.511,207.169 "/>
    <polygon style="fill: none; fill-opacity:0; stroke-width: 2; stroke: #000000" points="450.919,212.913 452.079,201.793 454.951,206.589 460.511,207.169 "/>
  </g>
  <g>
    <line style="fill: none; fill-opacity:0; stroke-width: 2; stroke: #000000" x1="427.952" y1="49.4338" x2="427.466" y2="202.824"/>
    <polygon style="fill: #000000" points="427.442,210.324 422.474,200.308 427.466,202.824 432.474,200.34 "/>
    <polygon style="fill: none; fill-opacity:0; stroke-width: 2; stroke: #000000" points="427.442,210.324 422.474,200.308 427.466,202.824 432.474,200.34 "/>
  </g>
</svg>
